<!-- icon666.com - MILLIONS vector ICONS FREE --><svg viewBox="-23 0 512 512" xmlns="http://www.w3.org/2000/svg"><path d="m466.160156 98.929688v82.871093c0 71.789063-21.515625 140.945313-62.210937 200-40.699219 59.050781-97.589844 103.667969-164.535157 129.039063-2.042968.769531-4.171874 1.160156-6.324218 1.160156h-.007813c-2.152343 0-4.292969-.390625-6.332031-1.160156-66.949219-25.371094-123.839844-69.988282-164.535156-129.039063-40.695313-59.054687-62.214844-128.210937-62.214844-200v-82.871093c0-9.433594 7.414062-17.039063 16.867188-17.289063 35.222656-.96875 63.5625-29.421875 64.523437-64.785156.261719-9.453125 7.855469-16.855469 17.296875-16.855469h268.785156c4.722656 0 8.984375 1.851562 12.09375 4.882812 3.113282 3.03125 5.074219 7.242188 5.203125 11.972657.960938 35.363281 29.300781 63.816406 64.527344 64.785156 9.453125.25 16.863281 7.855469 16.863281 17.289063zm0 0" fill="#ff6426"></path><path d="m466.160156 98.929688v82.871093c0 71.789063-21.515625 140.945313-62.210937 200-40.699219 59.050781-97.589844 103.667969-164.535157 129.039063-2.042968.769531-4.171874 1.160156-6.324218 1.160156v-512h134.382812c4.722656 0 8.984375 1.851562 12.09375 4.882812 3.113282 3.03125 5.074219 7.242188 5.203125 11.972657.960938 35.363281 29.300781 63.816406 64.527344 64.785156 9.453125.25 16.863281 7.855469 16.863281 17.289063zm0 0" fill="#d03b00"></path><path d="m233.089844 105.292969h-.007813c-32.574219 0-59.0625 26.488281-59.0625 59.0625v66.984375h118.125v-66.984375c0-32.574219-26.480469-59.054688-59.054687-59.0625zm29.042968 96.035156h-58.101562v-36.972656c0-16.027344 13.035156-29.050781 29.050781-29.050781h.007813c16.015625.007812 29.042968 13.023437 29.042968 29.050781zm0 0" fill="#fff"></path><path d="m292.144531 164.355469v66.984375h-59.054687v-30.011719h29.042968v-36.972656c0-16.027344-13.027343-29.042969-29.042968-29.050781v-30.011719c32.574218.007812 59.054687 26.488281 59.054687 59.0625zm0 0" fill="#ffe1ca"></path><path d="m321.367188 219.816406v138.382813c0 10.535156-8.566407 19.097656-19.089844 19.097656h-138.394532c-10.523437 0-19.085937-8.5625-19.085937-19.097656v-138.382813c0-10.523437 8.5625-19.089844 19.085937-19.089844h138.394532c10.523437 0 19.089844 8.566407 19.089844 19.089844zm0 0" fill="#ffe8cc"></path><path d="m321.367188 219.816406v138.382813c0 10.535156-8.566407 19.097656-19.089844 19.097656h-69.1875v-176.570313h69.1875c10.523437 0 19.089844 8.566407 19.089844 19.089844zm0 0" fill="#f9cea0"></path><path d="m248.085938 264.03125v49.953125c0 8.292969-6.710938 14.992187-14.996094 15.003906h-.007813c-8.285156 0-15.007812-6.710937-15.007812-15.003906v-49.953125c0-8.28125 6.722656-15.003906 15.007812-15.003906h.007813c8.285156.011718 14.996094 6.722656 14.996094 15.003906zm0 0" fill="#ffb14a"></path><path d="m248.085938 264.03125v49.953125c0 8.292969-6.710938 14.992187-14.996094 15.003906v-79.960937c8.285156.011718 14.996094 6.722656 14.996094 15.003906zm0 0" fill="#ff8b00"></path></svg>