<!-- icon666.com - MILLIONS vector ICONS FREE --><svg id="Layer_2" viewBox="0 0 32 32" xmlns="http://www.w3.org/2000/svg" xmlns:xlink="http://www.w3.org/1999/xlink" data-name="Layer 2"><linearGradient id="Orange_Yellow" gradientUnits="userSpaceOnUse" x1="3.301" x2="23.569" y1="30.733" y2="6.99"><stop offset="0" stop-color="#fff33b"></stop><stop offset=".04" stop-color="#fee72e"></stop><stop offset=".117" stop-color="#fed51b"></stop><stop offset=".196" stop-color="#fdca10"></stop><stop offset=".281" stop-color="#fdc70c"></stop><stop offset=".669" stop-color="#f3903f"></stop><stop offset=".888" stop-color="#ed683c"></stop><stop offset="1" stop-color="#e93e3a"></stop></linearGradient><linearGradient id="Orange_Yellow-2" x1="3.489" x2="23.757" xlink:href="#Orange_Yellow" y1="30.893" y2="7.15"></linearGradient><linearGradient id="Orange_Yellow-3" x1="3.64" x2="23.908" xlink:href="#Orange_Yellow" y1="31.022" y2="7.28"></linearGradient><linearGradient id="Orange_Yellow-4" x1="1.623" x2="21.891" xlink:href="#Orange_Yellow" y1="29.3" y2="5.558"></linearGradient><linearGradient id="Orange_Yellow-5" x1=".786" x2="21.054" xlink:href="#Orange_Yellow" y1="28.586" y2="4.843"></linearGradient><circle cx="21" cy="10" fill="url(#Orange_Yellow)" r="1"></circle><path d="m21 5.571v2a2.432 2.432 0 0 1 2.429 2.429h2a4.434 4.434 0 0 0 -4.429-4.429z" fill="url(#Orange_Yellow-2)"></path><path d="m21 2v2a6.006 6.006 0 0 1 6 6h2a8.009 8.009 0 0 0 -8-8z" fill="url(#Orange_Yellow-3)"></path><path d="m13 21a1.333 1.333 0 0 0 1.333-1.333v-3.037a2.667 2.667 0 1 0 -2.666 0v3.037a1.333 1.333 0 0 0 1.333 1.333z" fill="url(#Orange_Yellow-4)"></path><path d="m22.667 17.292a8.85 8.85 0 0 1 -3.767 7.244l-6.063 4.243-6.066-4.243a8.85 8.85 0 0 1 -3.771-7.244v-8.281l9.833-3.934 6.167 2.467v-2.155l-6.167-2.466-11.833 4.733v9.636a10.852 10.852 0 0 0 4.625 8.883l7.208 5.046 7.209-5.046a10.853 10.853 0 0 0 4.625-8.883v-5.292h-2z" fill="url(#Orange_Yellow-5)"></path></svg>