<!-- icon666.com - MILLIONS vector ICONS FREE --><svg id="Capa_1" enable-background="new 0 0 487.619 487.619" viewBox="0 0 487.619 487.619" xmlns="http://www.w3.org/2000/svg"><g><path clip-rule="evenodd" d="m452.142 73.175c2.631 3.258 4.286 7.197 4.769 11.357 16.521 141.909-46.175 281.746-167.797 374.186l-32.1 24.381c-3.858 2.933-8.569 4.52-13.414 4.52s-9.557-1.587-13.414-4.52l-32.053-24.427c-121.388-92.394-183.94-232.09-167.42-373.716.47-4.222 2.119-8.226 4.757-11.556 2.638-3.329 6.16-5.849 10.163-7.271l190.813-64.954c4.576-1.567 9.544-1.567 14.12 0l191.47 64.953c3.967 1.345 7.473 3.789 10.106 7.047zm-208.778 364.364 18.828-14.119v-.049c105.101-79.779 161.253-198.532 151.745-319.965l-170.761-57.94-170.149 57.893c-9.272 121.67 46.691 240.045 151.511 320.06zm-26.011-284.306c7.68-6.176 17.241-9.542 27.096-9.538 9.851.007 19.406 3.38 27.076 9.56 7.673 6.18 13.002 14.796 15.106 24.42s.856 19.678-3.538 28.496c-4.393 8.818-11.669 15.869-20.619 19.987v28.899c.127 2.448-.249 4.896-1.1 7.195-.85 2.299-2.159 4.401-3.848 6.178-1.688 1.777-3.721 3.191-5.973 4.157-2.252.968-4.678 1.468-7.129 1.468s-4.877-.5-7.129-1.468c-2.253-.965-4.285-2.38-5.973-4.157-1.689-1.777-2.998-3.879-3.849-6.178s-1.225-4.747-1.1-7.195v-28.899c-8.954-4.118-16.23-11.174-20.623-19.997-4.392-8.822-5.637-18.882-3.527-28.509 2.113-9.626 7.45-18.242 15.13-24.419z" fill="rgb(0,0,0)" fill-rule="evenodd"></path></g></svg>